<svg width="13" height="10" viewBox="0 0 13 10" fill="none" xmlns="http://www.w3.org/2000/svg">
<path d="M12.4453 2.36695C12.4453 2.17756 12.3679 1.98816 12.2285 1.8518L11.1756 0.821496C11.0363 0.685133 10.8427 0.609375 10.6492 0.609375C10.4556 0.609375 10.2621 0.685133 10.1227 0.821496L5.04402 5.79877L2.76789 3.56392C2.62854 3.42756 2.43499 3.3518 2.24144 3.3518C2.04789 3.3518 1.85434 3.42756 1.71499 3.56392L0.662087 4.59422C0.522732 4.73059 0.445312 4.91998 0.445312 5.10938C0.445312 5.29877 0.522732 5.48816 0.662087 5.62453L3.46467 8.36695L4.51757 9.39725C4.65693 9.53362 4.85047 9.60938 5.04402 9.60938C5.23757 9.60938 5.43112 9.53362 5.57047 9.39725L6.62338 8.36695L12.2285 2.8821C12.3679 2.74574 12.4453 2.55634 12.4453 2.36695Z" fill="#CE0F4E"/>
</svg>
