<svg width="30" height="25" viewBox="0 0 30 25" fill="none" xmlns="http://www.w3.org/2000/svg">
<path d="M30 8.17189C29.4978 8.72434 28.9286 9.20983 28.3259 9.62836C25.5301 11.5201 22.7176 13.4286 19.9888 15.404C18.5826 16.442 16.8415 17.7143 15.0167 17.7143H15H14.9833C13.1585 17.7143 11.4174 16.442 10.0112 15.404C7.28237 13.4118 4.46987 11.5201 1.69085 9.62836C1.07143 9.20983 0.502232 8.72434 0 8.17189V21.4643C0 22.9375 1.20536 24.1429 2.67857 24.1429H27.3214C28.7946 24.1429 30 22.9375 30 21.4643V8.17189ZM30 3.25001C30 1.7768 28.7779 0.571442 27.3214 0.571442H2.67857C0.887277 0.571442 0 1.97769 0 3.61832C0 5.14175 1.69085 7.03349 2.87946 7.83707C5.47433 9.6451 8.10268 11.4531 10.6975 13.2779C11.7857 14.0313 13.6272 15.5714 14.9833 15.5714H15H15.0167C16.3728 15.5714 18.2143 14.0313 19.3025 13.2779C21.8973 11.4531 24.5257 9.6451 27.1373 7.83707C28.6105 6.81586 30 5.12501 30 3.25001Z" fill="#CE0F4E"/>
</svg>
