<svg width="52" height="53" viewBox="0 0 52 53" fill="none" xmlns="http://www.w3.org/2000/svg">
<path d="M42.0631 0.857178H9.9202C4.59654 0.857178 0.277344 5.17637 0.277344 10.5V42.6429C0.277344 47.9666 4.59654 52.2858 9.9202 52.2858H27.7327V32.3639H21.0363V24.596H27.7327V18.8706C27.7327 12.2411 31.8175 8.62504 37.7439 8.62504C40.5564 8.62504 43.0006 8.82593 43.7037 8.92638V15.8572L39.6189 15.8907C36.3711 15.8907 35.7684 17.3974 35.7684 19.6407V24.596H43.4358L42.4314 32.3639H35.7684V52.2858H42.0631C47.3867 52.2858 51.7059 47.9666 51.7059 42.6429V10.5C51.7059 5.17637 47.3867 0.857178 42.0631 0.857178Z" fill="white"/>
</svg>
