<svg width="52" height="53" viewBox="0 0 52 53" fill="none" xmlns="http://www.w3.org/2000/svg">
<path d="M34.5631 26.5714C34.5631 31.2923 30.7126 35.1428 25.9916 35.1428C21.2707 35.1428 17.4202 31.2923 17.4202 26.5714C17.4202 21.8504 21.2707 17.9999 25.9916 17.9999C30.7126 17.9999 34.5631 21.8504 34.5631 26.5714ZM39.1836 26.5714C39.1836 19.2723 33.2908 13.3794 25.9916 13.3794C18.6925 13.3794 12.7997 19.2723 12.7997 26.5714C12.7997 33.8705 18.6925 39.7633 25.9916 39.7633C33.2908 39.7633 39.1836 33.8705 39.1836 26.5714ZM42.7997 12.8437C42.7997 11.1361 41.4269 9.76332 39.7193 9.76332C38.0117 9.76332 36.639 11.1361 36.639 12.8437C36.639 14.5513 38.0117 15.924 39.7193 15.924C41.4269 15.924 42.7997 14.5513 42.7997 12.8437ZM25.9916 5.47761C29.7416 5.47761 37.7774 5.17627 41.1591 6.51555C42.3309 6.9843 43.2015 7.5535 44.1055 8.45752C45.0095 9.36154 45.5787 10.2321 46.0475 11.4039C47.3867 14.7856 47.0854 22.8214 47.0854 26.5714C47.0854 30.3214 47.3867 38.3571 46.0475 41.7388C45.5787 42.9106 45.0095 43.7812 44.1055 44.6852C43.2015 45.5892 42.3309 46.1584 41.1591 46.6272C37.7774 47.9664 29.7416 47.6651 25.9916 47.6651C22.2416 47.6651 14.2059 47.9664 10.8242 46.6272C9.65236 46.1584 8.78183 45.5892 7.87781 44.6852C6.97379 43.7812 6.40459 42.9106 5.93584 41.7388C4.59656 38.3571 4.8979 30.3214 4.8979 26.5714C4.8979 22.8214 4.59656 14.7856 5.93584 11.4039C6.40459 10.2321 6.97379 9.36154 7.87781 8.45752C8.78183 7.5535 9.65236 6.9843 10.8242 6.51555C14.2059 5.17627 22.2416 5.47761 25.9916 5.47761ZM51.7059 26.5714C51.7059 23.0223 51.7394 19.5066 51.5385 15.9575C51.3376 11.8392 50.4001 8.18966 47.3867 5.17627C44.3733 2.16288 40.7238 1.22538 36.6055 1.02449C33.0564 0.823592 29.5408 0.857073 25.9916 0.857073C22.4425 0.857073 18.9269 0.823592 15.3778 1.02449C11.2595 1.22538 7.60995 2.16288 4.59656 5.17627C1.58317 8.18966 0.645665 11.8392 0.444772 15.9575C0.243879 19.5066 0.277361 23.0223 0.277361 26.5714C0.277361 30.1205 0.243879 33.6361 0.444772 37.1852C0.645665 41.3035 1.58317 44.9531 4.59656 47.9664C7.60995 50.9798 11.2595 51.9173 15.3778 52.1182C18.9269 52.3191 22.4425 52.2856 25.9916 52.2856C29.5408 52.2856 33.0564 52.3191 36.6055 52.1182C40.7238 51.9173 44.3733 50.9798 47.3867 47.9664C50.4001 44.9531 51.3376 41.3035 51.5385 37.1852C51.7394 33.6361 51.7059 30.1205 51.7059 26.5714Z" fill="white"/>
</svg>
