<svg width="26" height="27" viewBox="0 0 26 27" fill="none" xmlns="http://www.w3.org/2000/svg">
<path d="M16.6286 14.5915C16.1934 14.5915 15.3563 16.2154 14.8541 16.2154C14.7201 16.2154 14.603 16.1652 14.4858 16.0982C13.5483 15.6295 12.728 15.144 11.9579 14.4074C11.3217 13.8047 10.6186 12.9007 10.2503 12.1138C10.2001 12.0301 10.1666 11.9464 10.1666 11.8627C10.1666 11.4777 11.3217 10.7578 11.3217 10.1217C11.3217 9.95424 10.4679 7.67746 10.3507 7.39286C10.1833 6.95759 10.0996 6.82366 9.6476 6.82366C9.42997 6.82366 9.22907 6.77344 9.02818 6.77344C8.67662 6.77344 8.40876 6.90737 8.15765 7.14174C7.35407 7.89509 6.95229 8.68192 6.91881 9.78683V9.92076C6.90206 11.0759 7.47126 12.231 8.10742 13.1685C9.54715 15.2946 11.0371 17.1529 13.4311 18.2411C14.151 18.5759 15.8083 19.279 16.6119 19.279C17.5661 19.279 19.123 18.6763 19.5081 17.7388C19.6588 17.3538 19.7927 16.885 19.7927 16.4665C19.7927 16.3996 19.7927 16.2991 19.7592 16.2154C19.642 16.0145 16.9132 14.5915 16.6286 14.5915ZM13.2302 23.4643C11.1878 23.4643 9.16211 22.8449 7.45452 21.7232L3.40318 23.0123L4.72573 19.1116C3.41992 17.3203 2.7168 15.1607 2.7168 12.9509C2.7168 7.15848 7.43778 2.4375 13.2302 2.4375C19.0226 2.4375 23.7436 7.15848 23.7436 12.9509C23.7436 18.7433 19.0226 23.4643 13.2302 23.4643ZM13.2302 0.328125C6.2659 0.328125 0.607422 5.98661 0.607422 12.9509C0.607422 15.2444 1.22684 17.5045 2.41546 19.4632L0.138672 26.2433L7.1197 24C8.9947 25.0379 11.1041 25.5737 13.2302 25.5737C20.1945 25.5737 25.853 19.9152 25.853 12.9509C25.853 5.98661 20.1945 0.328125 13.2302 0.328125Z" fill="#CE0F4E"/>
</svg>
